<svg width="24" height="24" viewBox="0 0 24 24" fill="none" xmlns="http://www.w3.org/2000/svg">
<path fill-rule="evenodd" clip-rule="evenodd" d="M12.6 8.11201V6.91201H17.4V8.11201H12.6ZM12.6 9.91201V8.71201H18.6V9.91201H12.6ZM12.6 11.712V10.512H17.4V11.712H12.6ZM16.8 19.512H13.8V17.712H10.2V19.512H7.20002C6.86865 19.512 6.60002 19.7806 6.60002 20.112V20.712H17.4V20.112C17.4 19.7806 17.1314 19.512 16.8 19.512ZM20.4 3.31201H3.60002C2.93728 3.31201 2.40002 3.84927 2.40002 4.51201V15.912C2.40002 16.5748 2.93728 17.112 3.60002 17.112H20.4C21.0628 17.112 21.6 16.5748 21.6 15.912V4.51201C21.6 3.84927 21.0628 3.31201 20.4 3.31201ZM3.60002 4.53601V14.712H20.4V4.53601H3.60002ZM11.976 15.288C11.6447 15.288 11.376 15.5566 11.376 15.888C11.376 16.2194 11.6447 16.488 11.976 16.488C12.3074 16.488 12.576 16.2194 12.576 15.888C12.576 15.5566 12.3074 15.288 11.976 15.288ZM8.40002 6.31201C6.74317 6.31201 5.40002 7.65516 5.40002 9.31201C5.40002 10.9689 6.74317 12.312 8.40002 12.312C10.0569 12.312 11.4 10.9689 11.4 9.31201C11.4 8.51636 11.084 7.7533 10.5213 7.19069C9.95874 6.62808 9.19567 6.31201 8.40002 6.31201ZM10.478 8.11228L8.40002 9.31201V6.91201C9.25727 6.91253 10.0492 7.36997 10.478 8.11228Z" fill="black"/>
</svg>
