<svg width="20" height="16" viewBox="0 0 20 16" fill="none" xmlns="http://www.w3.org/2000/svg">
<path fill-rule="evenodd" clip-rule="evenodd" d="M17.4759 0.200012H0.399902V13.088C0.400218 13.6496 0.624049 14.1879 1.02197 14.5842C1.4199 14.9805 1.95919 15.202 2.52076 15.2H19.5999V2.27121C19.5999 1.10001 18.6477 0.200012 17.4759 0.200012ZM17.7999 4.70347L12.1301 10.16H12.1253C11.5696 10.712 10.8163 10.9988 9.98622 10.9988C9.15613 10.9988 8.40321 10.712 7.84648 10.16H7.8316L2.1999 4.70721V2.63028C4.45504 4.85949 8.55959 8.84001 8.55959 8.84001H8.56089C8.92809 9.22401 9.42808 9.38721 9.97974 9.38721C10.5641 9.38721 11.09 9.15201 11.462 8.74401H11.4646L17.7999 2.60124V4.70347Z" fill="black"/>
</svg>
