<svg fill="currentColor" height="22" viewBox="0 0 18 22" width="18" xmlns="http://www.w3.org/2000/svg">
  <path clip-rule="evenodd"
        d="M12.6 4.39999H9.59998C9.2686 4.39999 8.99998 4.13136 8.99998 3.79999V0.799988L12.6 4.39999ZM4.79998 13.4H2.99998C2.6686 13.4 2.39998 13.1314 2.39998 12.8C2.39998 12.4686 2.6686 12.2 2.99998 12.2H4.79998V11H2.99998C2.6686 11 2.39998 10.7314 2.39998 10.4C2.39998 10.0686 2.6686 9.79999 2.99998 9.79999H4.79998V8.59999H2.99998C2.6686 8.59999 2.39998 8.33136 2.39998 7.99999C2.39998 7.66862 2.6686 7.39999 2.99998 7.39999H4.79998V4.99999H8.25869C7.96281 4.67038 7.79941 4.24292 7.79998 3.79999V0.799988H0.599976V14.6C0.599976 15.5941 1.40586 16.4 2.39998 16.4H4.79998V13.4ZM17.4 9.19999H14.4C14.0686 9.19999 13.8 8.93136 13.8 8.59999V5.59999L17.4 9.19999ZM14.4 10.4C13.4059 10.4 12.6 9.5941 12.6 8.59999V5.59999H5.39998V19.4C5.39998 20.3941 6.20586 21.2 7.19998 21.2H17.4V10.4H14.4ZM15.6 17.6C15.6 17.9314 15.3313 18.2 15 18.2H7.79998C7.4686 18.2 7.19998 17.9314 7.19998 17.6C7.19998 17.2686 7.4686 17 7.79998 17H15C15.3313 17 15.6 17.2686 15.6 17.6ZM15.6 15.2C15.6 15.5314 15.3313 15.8 15 15.8H7.79998C7.4686 15.8 7.19998 15.5314 7.19998 15.2C7.19998 14.8686 7.4686 14.6 7.79998 14.6H15C15.3313 14.6 15.6 14.8686 15.6 15.2ZM15.6 12.8C15.6 13.1314 15.3313 13.4 15 13.4H7.79998C7.4686 13.4 7.19998 13.1314 7.19998 12.8C7.19998 12.4686 7.4686 12.2 7.79998 12.2H15C15.3313 12.2 15.6 12.4686 15.6 12.8Z"
        fill="currentColor"
        fill-rule="evenodd"/>
</svg>
