<svg width="18" height="18" viewBox="0 0 18 18" fill="none" xmlns="http://www.w3.org/2000/svg">
<path fill-rule="evenodd" clip-rule="evenodd" d="M16.3882 4.28554C16.2948 4.76633 16.0856 5.15453 15.8529 5.58607L15.8384 5.61305L15.8309 5.62695L15.8227 5.64043L13.8931 8.80843C14.1686 9.31293 14.0476 9.94193 13.6047 10.3083C13.1617 10.6746 12.5212 10.6754 12.0773 10.3101C11.6335 9.94487 11.511 9.31617 11.7853 8.811L9.84833 5.64118L9.83983 5.62731L9.83213 5.61291C9.57818 5.14176 9.33612 4.69229 9.26268 4.10391H0.599976V10.704L1.43998 11.544L0.599976 12.384V15.504C0.599976 16.4981 1.40586 17.304 2.39998 17.304H17.4V5.904C17.4001 5.2154 17.0073 4.58709 16.3882 4.28554ZM2.30554 10.7216L1.45702 9.87315L2.30556 9.0246L3.15408 9.87312L2.30554 10.7216ZM3.10234 8.21019L3.95086 7.36167L4.79938 8.21019L3.95086 9.05871L3.10234 8.21019ZM4.79938 9.90725L5.64792 9.05871L6.49642 9.9072L5.6479 10.7558L4.79938 9.90725ZM6.49644 11.6043L7.34496 10.7558L8.19358 11.6043L7.34494 12.4528L6.49644 11.6043ZM8.97317 14.064L8.12462 13.2155L8.97317 12.3669L9.82169 13.2155L8.97317 14.064ZM10.6702 12.3669L9.82169 11.5184L10.6702 10.6699L11.5188 11.5184L10.6702 12.3669ZM12.84 0.744001C12.0452 0.741635 11.2821 1.05569 10.7193 1.61683C10.1564 2.17798 9.84004 2.94007 9.83998 3.73486C9.83998 4.35631 10.0597 4.7707 10.3603 5.32831L12.8386 9.384H12.84L15.3102 5.32831C15.6108 4.7707 15.84 4.356 15.84 3.73486C15.84 2.09163 14.4826 0.744001 12.84 0.744001ZM12.84 4.824C12.2435 4.824 11.76 4.34047 11.76 3.744C11.76 3.14753 12.2435 2.664 12.84 2.664C13.4364 2.664 13.92 3.14753 13.92 3.744C13.92 4.34047 13.4364 4.824 12.84 4.824Z" fill="black"/>
</svg>
