<svg width="21" height="18" viewBox="0 0 21 18" fill="none" xmlns="http://www.w3.org/2000/svg">
<path fill-rule="evenodd" clip-rule="evenodd" d="M16.9999 9.00002V16.2C16.9999 17.1941 16.1941 18 15.1999 18H6.79995C5.80584 18 4.99995 17.1941 4.99995 16.2V14.4H4.39995V15C4.40087 15.2304 4.26928 15.4407 4.06174 15.5407C3.8542 15.6406 3.60769 15.6124 3.42816 15.468L0.81094 13.3698C0.576402 13.1816 0.439941 12.8971 0.439941 12.5964C0.439941 12.2957 0.576402 12.0112 0.81094 11.823L3.42816 9.72465C3.60817 9.58026 3.85508 9.55203 4.06304 9.65205C4.27081 9.75533 4.40157 9.96799 4.39995 10.2V10.8H4.99995V9.00002H1.39995L4.99995 5.42217V2.40002H8.04075L9.19995 1.24802H9.20016C9.64631 0.715587 10.3053 0.40802 10.9999 0.40802C11.6946 0.40802 12.3536 0.715587 12.7997 1.24802H12.7999L20.5999 9.00002H16.9999ZM3.79995 11.4V10.152L1.18604 12.2445C1.09371 12.3186 1.03999 12.4307 1.03999 12.5491C1.03999 12.6675 1.09371 12.7795 1.18604 12.8536L3.79995 14.952V13.8L6.91964 13.7978C7.19102 13.7753 7.39986 13.5486 7.39995 13.2762V11.9862C7.39995 11.8307 7.3382 11.6816 7.22828 11.5717C7.11835 11.4618 6.96926 11.4 6.8138 11.4H3.79995Z" fill="white"/>
</svg>
