<svg width="24" height="24" viewBox="0 0 24 24" fill="none" xmlns="http://www.w3.org/2000/svg">
<path fill-rule="evenodd" clip-rule="evenodd" d="M18 3.59902H15V3C15 2.33726 14.4627 1.8 13.8 1.8H10.2C9.53721 1.8 8.99995 2.33726 8.99995 3V3.59902H5.99995C5.00584 3.59902 4.19995 4.40491 4.19995 5.39902V6.6H19.8V5.39902C19.8 4.40491 18.9941 3.59902 18 3.59902ZM10.2 3H13.8V3.59902H10.2V3ZM5.39995 7.19902V22.2H18.6V7.19902H5.39995ZM8.99995 9.6V19.7968C8.99995 19.7978 8.99995 19.7989 8.99995 19.8C8.99995 20.1314 8.73132 20.4 8.39995 20.4C8.06858 20.4 7.79995 20.1314 7.79995 19.8C7.79995 19.7989 7.79995 19.7978 7.79995 19.7968V9.6C7.79995 9.59967 7.79995 9.59936 7.79995 9.59902C7.79995 9.26765 8.06858 8.99902 8.39995 8.99902C8.73132 8.99902 8.99995 9.26765 8.99995 9.59902C8.99995 9.59936 8.99995 9.59967 8.99995 9.6ZM12.6 9.6V19.7967C12.6 19.7978 12.6 19.7989 12.6 19.8C12.6 20.1314 12.3313 20.4 12 20.4C11.6686 20.4 11.4 20.1314 11.4 19.8C11.4 19.7989 11.4 19.7978 11.4 19.7967V9.6C11.4 9.59967 11.4 9.59933 11.4 9.59902C11.4 9.26765 11.6686 8.99902 12 8.99902C12.3313 8.99902 12.6 9.26765 12.6 9.59902C12.6 9.59933 12.6 9.59967 12.6 9.6ZM16.2 9.6V19.7968C16.2 19.7978 16.2 19.7989 16.2 19.8C16.2 20.1314 15.9313 20.4 15.6 20.4C15.2686 20.4 15 20.1314 15 19.8C15 19.7989 15 19.7978 15 19.7968V9.6C15 9.59967 15 9.59936 15 9.59902C15 9.26765 15.2686 8.99902 15.6 8.99902C15.9313 8.99902 16.2 9.26765 16.2 9.59902C16.2 9.59936 16.2 9.59967 16.2 9.6Z" fill="black"/>
</svg>
