<svg width="16" height="22" viewBox="0 0 16 22" fill="none" xmlns="http://www.w3.org/2000/svg">
<path fill-rule="evenodd" clip-rule="evenodd" d="M14 2.59902H11V2C11 1.33726 10.4627 0.800003 9.79995 0.800003H6.19995C5.53721 0.800003 4.99995 1.33726 4.99995 2V2.59902H1.99995C1.00584 2.59902 0.199951 3.40491 0.199951 4.39902V5.6H15.8V4.39902C15.8 3.40491 14.9941 2.59902 14 2.59902ZM6.19995 2H9.79995V2.59902H6.19995V2ZM1.39995 6.19902V21.2H14.6V6.19902H1.39995ZM4.99995 8.6V18.7968C4.99995 18.7978 4.99995 18.7989 4.99995 18.8C4.99995 19.1314 4.73132 19.4 4.39995 19.4C4.06858 19.4 3.79995 19.1314 3.79995 18.8C3.79995 18.7989 3.79995 18.7978 3.79995 18.7968V8.6C3.79995 8.59967 3.79995 8.59936 3.79995 8.59902C3.79995 8.26765 4.06858 7.99902 4.39995 7.99902C4.73132 7.99902 4.99995 8.26765 4.99995 8.59902C4.99995 8.59936 4.99995 8.59967 4.99995 8.6ZM8.59995 8.6V18.7967C8.59995 18.7978 8.59995 18.7989 8.59995 18.8C8.59995 19.1314 8.33132 19.4 7.99995 19.4C7.66858 19.4 7.39995 19.1314 7.39995 18.8C7.39995 18.7989 7.39995 18.7978 7.39995 18.7967V8.6C7.39995 8.59967 7.39995 8.59933 7.39995 8.59902C7.39995 8.26765 7.66858 7.99902 7.99995 7.99902C8.33132 7.99902 8.59995 8.26765 8.59995 8.59902C8.59995 8.59933 8.59995 8.59967 8.59995 8.6ZM12.2 8.6V18.7968C12.2 18.7978 12.2 18.7989 12.2 18.8C12.2 19.1314 11.9313 19.4 11.6 19.4C11.2686 19.4 11 19.1314 11 18.8C11 18.7989 11 18.7978 11 18.7968V8.6C11 8.59967 11 8.59936 11 8.59902C11 8.26765 11.2686 7.99902 11.6 7.99902C11.9313 7.99902 12.2 8.26765 12.2 8.59902C12.2 8.59936 12.2 8.59967 12.2 8.6Z" fill="black"/>
</svg>
