<svg width="18" height="16" viewBox="0 0 18 16" fill="none" xmlns="http://www.w3.org/2000/svg">
<path fill-rule="evenodd" clip-rule="evenodd" d="M18 1.76C18.0042 1.13963 17.6379 0.576572 17.0691 0.328875C16.5003 0.0811785 15.8386 0.196585 15.3873 0.622205L15.387 0.621917L6.20691 9.56L3.18226 6.19155L3.182 6.19189C2.56756 5.66103 1.64705 5.69642 1.07518 6.27289L0.454495 6.89689C-0.104769 7.46026 -0.153843 8.35305 0.340303 8.97433L0.340039 8.97452L5.30564 15.2145L5.30588 15.2143C5.59908 15.5843 6.04526 15.8 6.51732 15.8C6.98937 15.8 7.43555 15.5843 7.72875 15.2143L7.72902 15.2145L17.66 2.73454L17.6598 2.73435C17.8806 2.45765 18.0006 2.114 18 1.76Z" fill="black"/>
</svg>
