<svg width="18" height="22" viewBox="0 0 18 22" fill="none" xmlns="http://www.w3.org/2000/svg">
<path fill-rule="evenodd" clip-rule="evenodd" d="M9.00001 21.2C9.63664 21.2001 10.2472 20.9473 10.6975 20.4972C11.1477 20.0471 11.4007 19.4366 11.4008 18.8H6.59919C6.5993 19.4366 6.8523 20.0471 7.30254 20.4972C7.75278 20.9473 8.36338 21.2001 9.00001 21.2ZM17.4576 17.2913L16.2 15.2V9.24801C16.2 5.90001 13.9004 3.04471 10.8006 2.232V2.00001C10.797 1.00813 9.99191 0.205963 9.00002 0.205963C8.00813 0.205963 7.20303 1.00813 7.19941 2.00001V2.22722C4.09299 3.02654 1.80001 5.84515 1.80001 9.20001V15.2L0.542408 17.2913C0.431187 17.4767 0.428288 17.7076 0.534818 17.8957C0.641348 18.0838 0.840836 18.2001 1.05702 18.2H16.943C17.1592 18.2001 17.3587 18.0838 17.4652 17.8957C17.5717 17.7076 17.5688 17.4767 17.4576 17.2913Z" fill="black"/>
</svg>
